<?xml version="1.0" encoding="utf-8"?>
<svg viewBox="144.983 87.861 275 108.5" width="275" height="108.5" xmlns="http://www.w3.org/2000/svg">
  <polygon class="trapezoid" points="391.983 196.361 168.983 196.361 144.983 87.861 419.983 87.861" style="paint-order: stroke; fill: rgb(255, 187, 187);" transform="matrix(0.9999999999999999, 0, 0, 0.9999999999999999, -7.105427357601002e-15, -7.105427357601002e-15)"/>
  <g id="The" transform="matrix(0.9999999999999999, 0, 0, 0.9999999999999999, 117.14037322998044, 50.158351898193345)">
    <g>
      <g>
        <path class="logo_letters" d="M 87.402 58.883 L 86.602 59.183 C 85.702 57.383 84.002 56.083 82.002 56.083 C 81.202 56.083 81.202 56.483 81.202 56.983 L 81.202 66.483 C 81.202 66.983 81.202 67.683 81.402 68.083 C 81.702 68.783 82.402 68.783 83.002 68.783 L 83.402 68.783 L 83.402 69.483 L 76.902 69.483 L 76.902 68.883 L 77.302 68.883 C 77.902 68.883 78.602 68.783 78.902 68.183 C 79.102 67.783 79.102 66.983 79.102 66.483 L 79.102 57.083 C 79.102 56.383 79.102 55.983 78.202 55.983 C 76.102 55.983 74.502 57.283 73.502 59.083 L 72.802 58.783 L 74.002 55.083 L 86.202 55.083 L 87.402 58.883 Z" style="paint-order: stroke; fill: rgb(136, 34, 34);"/>
        <path class="logo_letters" d="M 98.402 66.783 C 98.402 67.983 98.602 68.683 99.902 68.783 L 100.102 68.783 L 100.102 69.483 L 94.502 69.483 L 94.502 68.883 L 94.802 68.883 C 96.202 68.783 96.402 68.183 96.402 66.883 L 96.402 62.383 C 96.402 61.883 96.402 61.283 96.102 60.883 C 95.802 60.483 95.202 60.283 94.702 60.283 C 93.502 60.283 91.802 61.083 91.002 61.983 L 91.002 66.983 C 91.002 68.183 91.102 68.983 92.402 68.983 L 92.702 68.983 L 92.702 69.483 L 87.102 69.483 L 87.102 68.883 L 87.302 68.883 C 88.702 68.783 89.002 68.183 89.002 66.883 L 89.002 57.883 C 89.002 56.783 88.902 55.983 87.402 55.883 L 87.102 55.883 L 87.102 55.283 C 88.102 55.183 89.202 54.983 90.102 54.583 L 90.902 54.583 L 90.902 60.983 C 92.102 59.983 93.502 59.183 95.202 59.183 C 96.002 59.183 96.902 59.383 97.602 59.883 C 98.402 60.483 98.402 61.383 98.402 62.283 L 98.402 62.383 L 98.402 66.783 Z" style="paint-order: stroke; fill: rgb(136, 34, 34);"/>
        <path class="logo_letters" d="M 103.502 63.383 L 103.502 64.483 C 103.502 65.483 103.902 66.583 104.402 67.383 C 105.002 68.283 106.002 68.683 107.102 68.683 C 108.502 68.683 109.502 67.983 110.202 66.783 L 110.902 67.183 C 110.102 68.883 108.402 69.683 106.602 69.683 C 105.202 69.683 104.002 69.283 102.902 68.283 C 101.902 67.283 101.302 65.783 101.302 64.383 C 101.302 61.383 103.202 59.183 106.302 59.183 C 108.802 59.183 110.802 60.883 110.802 63.383 L 110.802 63.483 L 103.502 63.483 L 103.502 63.383 Z M 108.602 62.583 C 108.602 60.983 107.602 59.983 106.202 59.983 C 104.702 59.983 103.702 61.183 103.602 62.583 L 108.602 62.583 Z" style="paint-order: stroke; fill: rgb(136, 34, 34);"/>
      </g>
    </g>
  </g>
  <g id="Pragmatic" transform="matrix(0.9999999999999999, 0, 0, 0.9999999999999999, 117.14037322998044, 50.158351898193345)">
    <g>
      <g>
        <path class="logo_letters" d="M 56.002 86.183 C 56.002 86.983 56.002 87.983 56.302 88.583 C 56.802 89.683 58.002 89.783 59.002 89.883 L 59.702 89.883 L 59.702 90.983 L 49.202 90.983 L 49.202 89.883 L 49.502 89.883 C 50.502 89.783 51.502 89.683 51.902 88.683 C 52.302 87.883 52.302 86.683 52.302 85.683 L 52.302 71.083 C 52.302 69.183 52.102 67.783 49.602 67.583 L 49.102 67.583 L 49.102 66.483 L 60.902 66.483 C 63.002 66.483 65.102 66.683 66.902 67.783 C 68.902 68.983 70.002 70.983 70.002 73.283 C 70.002 75.383 69.102 77.383 67.402 78.683 C 65.602 80.083 63.002 80.283 60.802 80.283 L 55.802 80.283 L 55.802 86.183 L 56.002 86.183 Z M 60.402 78.883 C 62.202 78.883 63.802 78.783 65.102 77.383 C 66.202 76.183 66.502 74.883 66.502 73.283 C 66.502 71.783 66.002 70.183 64.802 69.183 C 63.602 68.183 62.002 67.883 60.502 67.883 C 59.602 67.883 57.202 67.983 56.502 68.583 C 56.002 68.883 56.002 69.683 56.002 70.283 L 56.002 78.883 L 60.402 78.883 L 60.402 78.883 Z" style="paint-order: stroke; fill: rgb(136, 34, 34);"/>
        <path class="logo_letters" d="M 77.802 86.383 C 77.902 88.483 78.202 89.683 80.502 89.883 L 81.102 89.883 L 81.102 90.983 L 71.202 90.983 L 71.202 89.883 L 71.602 89.883 C 74.002 89.783 74.402 88.583 74.402 86.383 L 74.402 78.883 C 74.402 76.883 74.002 75.583 71.802 75.383 L 71.102 75.383 L 71.102 74.283 L 76.602 73.483 L 77.802 73.483 L 77.802 76.183 C 79.402 74.583 81.402 73.083 83.802 73.083 C 85.002 73.083 86.502 73.583 86.502 74.983 C 86.502 76.183 85.602 76.883 84.502 76.883 C 82.802 76.883 82.402 75.683 81.302 75.683 C 80.102 75.683 78.602 76.783 77.802 77.683 L 77.802 86.383 Z" style="paint-order: stroke; fill: rgb(136, 34, 34);"/>
        <path class="logo_letters" d="M 107.402 90.083 C 106.502 90.883 105.102 91.283 103.902 91.283 L 103.802 91.283 C 102.002 91.283 100.402 90.483 99.902 88.683 C 97.802 90.383 95.802 91.283 93.102 91.283 C 90.602 91.283 87.602 89.883 87.602 87.083 C 87.602 84.683 89.102 83.483 91.202 82.583 C 93.102 81.683 95.202 81.283 97.202 81.083 L 99.902 80.783 L 99.902 78.183 C 99.802 77.083 99.602 76.083 98.602 75.483 C 97.702 74.883 96.402 74.683 95.402 74.683 C 94.302 74.683 91.902 75.183 91.902 76.583 L 91.902 77.083 C 91.902 78.283 91.402 79.283 90.102 79.283 C 89.202 79.283 88.402 78.583 88.402 77.683 C 88.402 76.183 90.102 74.883 91.302 74.283 C 92.802 73.683 94.802 73.283 96.402 73.283 L 96.502 73.283 C 98.002 73.283 99.902 73.783 101.202 74.483 C 103.102 75.483 103.302 76.883 103.302 78.883 L 103.302 85.983 C 103.302 87.483 103.502 89.783 105.302 89.783 C 105.802 89.783 106.302 89.483 106.802 89.283 L 107.402 90.083 Z M 99.802 81.983 C 97.102 82.283 91.202 82.983 91.202 86.583 C 91.202 88.383 92.702 89.483 94.502 89.483 C 96.402 89.483 98.402 88.283 99.902 87.083 L 99.902 81.983 L 99.802 81.983 Z" style="paint-order: stroke; fill: rgb(136, 34, 34);"/>
        <path class="logo_letters" d="M 120.702 89.283 C 123.402 89.683 126.502 90.183 126.502 93.683 C 126.502 98.583 120.702 99.683 116.802 99.683 C 113.902 99.683 107.702 98.983 107.702 95.083 C 107.702 92.983 109.802 91.883 111.402 91.283 L 111.402 91.183 C 110.002 90.783 108.802 89.883 108.802 88.283 C 108.802 86.283 110.502 84.983 112.302 84.583 C 110.502 83.583 109.502 81.683 109.502 79.683 L 109.502 79.483 C 109.602 75.483 113.002 73.183 116.702 73.183 C 117.802 73.183 118.902 73.383 120.002 73.783 C 120.902 72.083 122.502 70.583 124.502 70.583 C 125.502 70.583 126.602 70.983 126.602 72.083 C 126.602 72.783 126.102 73.483 125.302 73.483 C 124.502 73.483 123.802 72.883 123.002 72.883 C 122.202 72.883 121.602 73.683 121.102 74.283 C 122.902 75.583 124.102 77.383 124.102 79.683 C 124.102 81.383 123.202 83.183 121.902 84.183 C 120.502 85.383 118.502 85.683 116.602 85.683 C 115.402 85.683 114.402 85.483 113.402 85.083 C 112.702 85.383 111.702 86.183 111.702 86.983 C 111.702 88.283 113.702 88.383 114.502 88.483 L 120.702 89.283 Z M 112.802 91.683 C 111.402 92.083 109.902 93.383 109.902 94.883 C 109.902 98.083 114.702 98.583 117.002 98.583 C 119.302 98.583 123.902 98.083 123.902 94.983 C 123.902 92.983 121.302 92.783 119.802 92.583 L 112.802 91.683 Z M 113.002 79.483 C 113.002 82.183 113.702 84.483 116.902 84.483 C 118.102 84.483 119.502 83.883 120.002 82.783 C 120.502 81.883 120.602 80.383 120.602 79.383 C 120.602 76.783 120.002 74.483 116.902 74.483 C 113.902 74.483 113.002 76.983 113.002 79.483 Z" style="paint-order: stroke; fill: rgb(136, 34, 34);"/>
        <path class="logo_letters" d="M 133.802 86.383 C 133.802 88.383 134.102 89.683 136.402 89.883 L 136.802 89.883 L 136.802 90.983 L 127.602 90.983 L 127.602 89.883 C 130.002 89.683 130.402 88.483 130.402 86.383 L 130.402 78.883 C 130.402 76.883 130.002 75.583 127.802 75.383 L 127.202 75.383 L 127.202 74.283 L 132.702 73.483 L 133.902 73.483 L 133.902 75.983 C 135.502 74.283 137.902 73.183 140.702 73.183 C 143.002 73.183 144.602 73.783 145.702 75.983 C 147.502 74.383 150.002 73.183 152.302 73.183 L 152.402 73.183 C 153.902 73.183 155.502 73.683 156.502 74.983 C 157.302 75.983 157.402 77.283 157.402 78.483 L 157.402 86.383 C 157.402 88.283 157.702 89.683 160.102 89.883 L 160.102 90.983 L 151.002 90.983 L 151.002 89.883 L 151.302 89.883 C 153.602 89.683 154.002 88.483 154.002 86.383 L 154.002 79.283 C 154.002 78.483 154.002 77.583 153.702 76.883 C 153.302 75.783 152.302 75.083 151.102 75.083 C 149.202 75.083 147.302 76.283 145.702 77.483 L 145.702 86.483 C 145.702 88.583 146.102 89.783 148.402 89.983 L 148.702 89.983 L 148.702 91.083 L 139.102 91.083 L 139.102 89.983 L 139.402 89.983 C 141.702 89.783 142.102 88.583 142.102 86.483 L 142.102 79.283 C 142.102 77.283 142.002 75.183 139.402 75.183 C 137.302 75.183 135.302 76.383 133.902 77.583 L 133.902 86.383 L 133.802 86.383 Z" style="paint-order: stroke; fill: rgb(136, 34, 34);"/>
        <path class="logo_letters" d="M 181.502 90.083 C 180.602 90.883 179.202 91.283 178.002 91.283 L 177.902 91.283 C 176.102 91.283 174.502 90.483 174.002 88.683 C 171.902 90.383 169.902 91.283 167.202 91.283 C 164.702 91.283 161.702 89.883 161.702 87.083 C 161.702 84.683 163.202 83.483 165.302 82.583 C 167.202 81.683 169.302 81.283 171.302 81.083 L 174.002 80.783 L 174.002 78.183 C 173.902 77.083 173.702 76.083 172.702 75.483 C 171.802 74.883 170.502 74.683 169.502 74.683 C 168.402 74.683 166.002 75.183 166.002 76.583 L 166.002 77.083 C 166.002 78.283 165.502 79.283 164.202 79.283 C 163.302 79.283 162.502 78.583 162.502 77.683 C 162.502 76.183 164.202 74.883 165.402 74.283 C 166.902 73.683 168.902 73.283 170.502 73.283 L 170.602 73.283 C 172.102 73.283 174.002 73.783 175.302 74.483 C 177.202 75.483 177.402 76.883 177.402 78.883 L 177.402 85.983 C 177.402 87.483 177.602 89.783 179.402 89.783 C 179.902 89.783 180.402 89.483 180.902 89.283 L 181.502 90.083 Z M 174.002 81.983 C 171.302 82.283 165.402 82.983 165.402 86.583 C 165.402 88.383 166.902 89.483 168.702 89.483 C 170.602 89.483 172.602 88.283 174.102 87.083 L 174.102 81.983 L 174.002 81.983 Z" style="paint-order: stroke; fill: rgb(136, 34, 34);"/>
        <path class="logo_letters" d="M 193.602 74.683 L 188.502 74.683 L 188.502 84.783 C 188.502 86.783 188.502 89.683 191.202 89.683 C 192.502 89.683 193.502 88.983 194.302 88.083 L 195.202 88.883 C 194.002 90.483 192.102 91.183 190.102 91.183 C 188.902 91.183 187.502 90.883 186.502 90.283 C 185.102 89.383 184.902 87.983 184.902 86.383 L 184.902 74.683 L 181.902 74.683 L 181.902 73.483 C 186.002 73.383 186.802 70.383 186.802 66.883 L 188.302 66.883 L 188.302 73.483 L 193.402 73.483 L 193.402 74.683 L 193.602 74.683 Z" style="paint-order: stroke; fill: rgb(136, 34, 34);"/>
        <path class="logo_letters" d="M 202.402 86.383 C 202.402 88.383 202.702 89.683 205.002 89.883 L 205.402 89.883 L 205.402 90.983 L 195.902 90.983 L 195.902 89.883 L 196.202 89.883 C 198.602 89.783 198.902 88.583 198.902 86.383 L 198.902 78.883 C 198.902 76.883 198.502 75.583 196.302 75.383 L 195.702 75.383 L 195.702 74.283 L 201.202 73.483 L 202.402 73.483 L 202.402 86.383 Z M 200.602 71.783 C 199.302 71.783 198.502 70.783 198.502 69.583 C 198.502 68.483 199.502 67.483 200.702 67.483 C 202.002 67.483 202.902 68.483 202.902 69.683 C 202.802 70.883 201.802 71.783 200.602 71.783 Z" style="paint-order: stroke; fill: rgb(136, 34, 34);"/>
        <path class="logo_letters" d="M 223.702 87.283 C 221.902 90.083 219.302 91.283 216.002 91.283 C 210.602 91.283 207.102 87.783 207.102 82.383 C 207.102 76.983 210.402 73.183 216.002 73.183 C 217.702 73.183 219.302 73.483 220.802 74.483 C 222.002 75.283 223.202 76.483 223.202 77.983 C 223.202 79.083 222.502 79.983 221.402 79.983 C 220.402 79.983 219.602 79.283 219.602 78.283 C 219.602 77.783 219.702 77.383 219.702 76.883 C 219.702 75.283 217.402 74.583 216.102 74.583 C 212.002 74.583 211.202 79.083 211.202 82.283 L 211.202 82.383 C 211.202 85.983 212.802 89.883 217.002 89.883 C 219.502 89.883 221.102 88.483 222.602 86.583 L 223.702 87.283 Z" style="paint-order: stroke; fill: rgb(136, 34, 34);"/>
      </g>
    </g>
  </g>
  <g id="Bookshelf" transform="matrix(0.9999999999999999, 0, 0, 0.9999999999999999, 117.14037322998044, 50.158351898193345)">
    <g>
      <g>
        <path class="logo_letters" d="M 94.702 118.483 L 94.702 117.383 L 95.102 117.383 C 96.102 117.283 97.202 117.183 97.702 116.183 C 98.002 115.583 98.102 114.483 98.102 113.583 L 98.102 98.583 C 98.102 96.683 97.902 95.283 95.402 95.083 L 94.802 94.983 L 94.802 93.883 L 107.102 93.883 C 109.002 93.883 111.802 93.983 113.602 94.583 C 115.902 95.383 117.602 97.183 117.602 99.683 C 117.602 102.783 115.202 104.283 112.402 104.783 L 112.402 104.883 C 115.702 105.383 118.902 107.383 118.902 111.083 C 118.902 113.783 117.502 115.983 115.102 117.183 C 112.902 118.283 109.902 118.383 107.502 118.383 L 94.702 118.383 L 94.702 118.483 Z M 105.602 104.483 C 108.902 104.483 113.902 104.483 113.902 99.883 C 113.902 95.783 109.702 95.283 106.502 95.283 C 105.502 95.283 103.202 95.283 102.302 96.083 C 101.702 96.683 101.602 97.783 101.602 98.683 L 101.602 104.483 L 105.602 104.483 Z M 101.602 112.783 C 101.602 113.783 101.602 115.383 102.202 116.083 C 103.002 116.883 105.302 116.983 106.402 116.983 C 108.202 116.983 110.602 116.783 112.202 115.883 C 113.902 114.883 114.802 113.083 114.802 111.083 C 114.802 108.883 113.802 106.883 111.502 106.283 C 110.002 105.883 107.902 105.883 106.202 105.883 L 101.602 105.883 L 101.602 112.783 Z" style="paint-order: stroke; fill: rgb(136, 34, 34);"/>
        <path class="logo_letters" d="M 136.502 102.983 C 138.302 104.683 139.102 107.383 139.102 109.783 C 139.102 115.183 135.702 118.783 130.302 118.783 C 125.002 118.783 121.502 115.283 121.502 109.983 C 121.502 104.583 124.602 100.683 130.202 100.683 C 132.502 100.683 134.902 101.383 136.502 102.983 Z M 130.402 102.183 C 126.302 102.183 125.302 106.583 125.302 109.883 C 125.302 113.383 126.302 117.383 130.602 117.383 C 134.502 117.383 135.402 113.283 135.402 110.183 C 135.402 108.483 135.302 106.483 134.502 104.883 C 133.702 103.383 132.202 102.183 130.502 102.183 L 130.402 102.183 Z" style="paint-order: stroke; fill: rgb(136, 34, 34);"/>
        <path class="logo_letters" d="M 156.702 102.983 C 158.502 104.683 159.302 107.383 159.302 109.783 C 159.302 115.183 155.902 118.783 150.502 118.783 C 145.202 118.783 141.702 115.283 141.702 109.983 C 141.702 104.583 144.802 100.683 150.402 100.683 C 152.602 100.683 155.102 101.383 156.702 102.983 Z M 150.602 102.183 C 146.502 102.183 145.502 106.583 145.502 109.883 C 145.502 113.383 146.502 117.383 150.802 117.383 C 154.702 117.383 155.602 113.283 155.602 110.183 C 155.602 108.483 155.502 106.483 154.702 104.883 C 153.902 103.383 152.402 102.183 150.702 102.183 L 150.602 102.183 Z" style="paint-order: stroke; fill: rgb(136, 34, 34);"/>
        <path class="logo_letters" d="M 167.902 109.483 L 173.002 104.983 C 173.402 104.583 174.302 103.983 174.302 103.283 C 174.302 102.283 173.102 102.183 172.302 102.083 L 172.302 100.983 L 181.902 100.983 L 181.902 102.083 C 178.702 102.383 176.502 103.783 174.202 105.883 L 173.302 106.683 L 178.302 113.983 C 179.502 115.683 180.902 117.083 183.102 117.383 L 183.102 118.483 L 173.302 118.483 L 173.302 117.383 L 173.702 117.383 C 174.402 117.383 175.302 117.383 175.302 116.383 C 175.302 115.583 174.502 114.583 174.102 113.983 L 170.702 109.083 L 167.802 111.683 L 167.802 113.983 C 167.802 116.083 168.002 117.383 170.302 117.483 L 170.902 117.483 L 170.902 118.483 L 161.102 118.483 L 161.102 117.383 L 161.502 117.383 C 163.902 117.283 164.302 116.183 164.302 113.883 L 164.302 98.483 C 164.302 96.583 164.102 95.183 161.602 94.983 L 161.102 94.983 L 161.102 93.883 C 162.902 93.683 164.602 93.383 166.302 92.683 L 167.702 92.683 L 167.702 109.483 L 167.902 109.483 Z" style="paint-order: stroke; fill: rgb(136, 34, 34);"/>
        <path class="logo_letters" d="M 199.102 106.583 L 197.902 106.583 C 197.002 104.183 194.202 102.183 191.602 102.183 C 190.002 102.183 187.902 102.883 187.902 104.783 C 187.902 106.583 190.002 106.883 191.302 107.183 L 195.402 108.183 C 198.102 108.783 200.402 109.783 200.402 112.983 C 200.402 116.983 196.402 118.783 192.902 118.783 C 190.802 118.783 188.802 118.283 187.102 116.983 L 186.702 118.483 L 185.502 118.483 L 184.202 112.083 L 185.502 112.083 C 186.502 115.283 189.502 117.283 192.802 117.283 C 194.602 117.283 197.302 116.383 197.302 114.083 C 197.302 112.283 195.702 111.883 194.302 111.583 L 190.602 110.583 C 187.902 109.883 184.802 109.183 184.802 105.783 C 184.802 102.483 188.502 100.683 191.402 100.683 C 193.202 100.683 195.102 101.183 196.502 102.283 L 196.902 100.983 L 197.902 100.983 L 199.102 106.583 Z" style="paint-order: stroke; fill: rgb(136, 34, 34);"/>
        <path class="logo_letters" d="M 221.802 113.883 C 221.802 115.883 222.102 117.183 224.302 117.383 L 224.702 117.383 L 224.702 118.483 L 215.102 118.483 L 215.102 117.383 L 215.502 117.383 C 217.902 117.283 218.302 116.183 218.302 113.883 L 218.302 106.183 C 218.302 105.283 218.302 104.383 217.702 103.583 C 217.102 102.883 216.202 102.583 215.302 102.583 C 213.202 102.583 210.402 103.983 209.002 105.383 L 209.002 113.883 C 209.002 115.883 209.302 117.183 211.402 117.383 L 211.902 117.383 L 211.902 118.483 L 202.302 118.483 L 202.302 117.383 L 202.702 117.383 C 205.102 117.283 205.502 116.183 205.502 113.883 L 205.502 98.483 C 205.502 96.583 205.302 95.183 202.802 94.983 L 202.302 94.983 L 202.302 93.883 C 204.102 93.683 205.802 93.383 207.502 92.683 L 208.902 92.683 L 208.902 103.783 C 211.002 101.983 213.402 100.783 216.202 100.783 C 217.502 100.783 219.202 101.183 220.202 101.983 C 221.602 103.083 221.602 104.583 221.602 106.083 L 221.602 106.383 L 221.602 113.883 L 221.802 113.883 Z" style="paint-order: stroke; fill: rgb(136, 34, 34);"/>
        <path class="logo_letters" d="M 230.502 108.083 L 230.402 109.883 C 230.402 111.583 231.002 113.483 231.902 114.883 C 232.902 116.383 234.702 117.083 236.502 117.083 C 238.902 117.083 240.602 115.883 241.802 113.783 L 243.002 114.383 C 241.702 117.183 238.702 118.683 235.702 118.683 C 233.302 118.683 231.202 118.083 229.402 116.383 C 227.602 114.583 226.702 112.083 226.702 109.683 C 226.702 104.483 230.002 100.683 235.302 100.683 L 235.402 100.683 C 239.602 100.683 243.102 103.483 243.102 107.883 L 243.102 107.983 L 230.502 107.983 L 230.502 108.083 Z M 239.202 106.583 C 239.202 103.883 237.502 102.183 235.102 102.183 C 232.502 102.183 230.902 104.283 230.602 106.583 L 239.202 106.583 Z" style="paint-order: stroke; fill: rgb(136, 34, 34);"/>
        <path class="logo_letters" d="M 251.502 113.883 C 251.502 115.783 251.802 117.183 254.002 117.383 L 254.402 117.383 L 254.402 118.483 L 245.002 118.483 L 245.002 117.383 L 245.302 117.383 C 247.602 117.183 248.002 116.083 248.002 113.883 L 248.002 98.483 C 248.002 96.583 247.802 95.183 245.302 94.983 L 244.802 94.983 L 244.802 93.883 C 246.602 93.683 248.302 93.383 250.002 92.683 L 251.402 92.683 L 251.402 113.883 L 251.502 113.883 Z" style="paint-order: stroke; fill: rgb(136, 34, 34);"/>
        <path class="logo_letters" d="M 265.702 102.183 L 262.102 102.183 L 262.102 113.883 C 262.102 115.883 262.402 117.183 264.602 117.383 L 265.102 117.383 L 265.102 118.483 L 255.602 118.483 L 255.602 117.383 L 255.902 117.383 C 258.202 117.283 258.602 116.083 258.602 113.883 L 258.602 102.183 L 255.502 102.183 L 255.502 100.983 L 258.602 100.983 L 258.602 99.483 C 258.602 97.583 258.702 95.883 260.102 94.383 C 261.702 92.783 264.402 91.983 266.602 91.983 C 267.802 91.983 269.702 92.583 269.702 94.083 C 269.702 94.983 268.902 95.683 268.002 95.683 C 266.302 95.683 266.302 93.583 264.602 93.583 C 264.002 93.583 263.302 93.983 262.802 94.383 C 262.002 95.183 262.002 96.083 262.002 97.183 L 262.002 101.083 L 265.602 101.083 L 265.602 102.183 L 265.702 102.183 Z" style="paint-order: stroke; fill: rgb(136, 34, 34);"/>
      </g>
    </g>
  </g>
</svg>